<svg width="373" height="372" viewBox="0 0 373 372" fill="none" xmlns="http://www.w3.org/2000/svg">
<path d="M353.43 371.74H19.2C8.94 371.74 0.630005 363.43 0.630005 353.17V18.94C0.630005 8.67999 8.94 0.369995 19.2 0.369995H353.44C363.7 0.369995 372.01 8.67999 372.01 18.94V353.18C372 363.43 363.69 371.74 353.43 371.74Z" fill="url(#paint0_linear)"/>
<path d="M353.43 371.74H19.2C8.94 371.74 0.630005 363.43 0.630005 353.17L278.05 271.53C289.75 269.5 295.81 262.25 296.62 252.96L353.44 0.360001C363.7 0.360001 372.01 8.67 372.01 18.93V353.17C372 363.43 363.69 371.74 353.43 371.74Z" fill="url(#paint1_linear)"/>
<path d="M91.38 371.74H19.2C8.94 371.74 0.630005 363.43 0.630005 353.17V18.94C0.630005 8.67999 8.94 0.369995 19.2 0.369995H353.44C363.7 0.369995 372.01 8.67999 372.01 18.94V71.42L170.78 144.5C167.53 145.51 164.25 148.44 163.33 151.95C150.72 200.43 91.38 371.74 91.38 371.74Z" fill="url(#paint2_linear)"/>
<path d="M85.3 256.68V115.44C85.3 112.36 87.79 109.87 90.87 109.87H184.58C187.66 109.87 190.15 112.36 190.15 115.44V134.12C190.15 137.2 187.66 139.69 184.58 139.69H123.95C120.87 139.69 118.38 142.18 118.38 145.26V165.03C118.38 168.11 120.87 170.6 123.95 170.6H184.65C187.73 170.6 190.22 173.09 190.22 176.17V194.85C190.22 197.93 187.73 200.42 184.65 200.42H123.95C120.87 200.42 118.38 202.91 118.38 205.99V226.85C118.38 229.93 120.87 232.42 123.95 232.42H184.5C187.58 232.42 190.07 234.91 190.07 237.99V256.67C190.07 259.75 187.58 262.24 184.5 262.24H90.86C87.79 262.25 85.3 259.76 85.3 256.68Z" fill="white"/>
<path d="M287.33 134.19V115.51C287.33 112.43 284.84 109.94 281.76 109.94H221.06C217.98 109.94 215.49 112.43 215.49 115.51V134.19C215.49 137.27 217.98 139.76 221.06 139.76H229.29C232.37 139.76 234.86 142.25 234.86 145.33V226.85C234.86 229.93 232.37 232.42 229.29 232.42H221.06C217.98 232.42 215.49 234.91 215.49 237.99V256.67C215.49 259.75 217.98 262.24 221.06 262.24H281.76C284.84 262.24 287.33 259.75 287.33 256.67V238C287.33 234.92 284.84 232.43 281.76 232.43H273.53C270.45 232.43 267.96 229.94 267.96 226.86V145.34C267.96 142.26 270.45 139.77 273.53 139.77H281.76C284.83 139.76 287.33 137.27 287.33 134.19Z" fill="white"/>
<defs>
<linearGradient id="paint0_linear" x1="62.8897" y1="-27.7326" x2="309.748" y2="399.839" gradientUnits="userSpaceOnUse">
<stop stop-color="#4615D1"/>
<stop offset="0.2035" stop-color="#4A18D5"/>
<stop offset="0.4143" stop-color="#5720E2"/>
<stop offset="0.6277" stop-color="#6B2DF6"/>
<stop offset="0.7" stop-color="#7433FF"/>
<stop offset="0.7398" stop-color="#7D3AFF"/>
<stop offset="0.8047" stop-color="#954EFF"/>
<stop offset="0.8866" stop-color="#BD6EFE"/>
<stop offset="0.9815" stop-color="#F39AFD"/>
<stop offset="1" stop-color="#FFA3FD"/>
</linearGradient>
<linearGradient id="paint1_linear" x1="147.694" y1="119.147" x2="309.75" y2="399.837" gradientUnits="userSpaceOnUse">
<stop offset="0.7349" stop-color="#1A1A1A" stop-opacity="0"/>
<stop offset="0.9635" stop-color="#1A1A1A" stop-opacity="0.0862"/>
<stop offset="1" stop-color="#1A1A1A" stop-opacity="0.1"/>
</linearGradient>
<linearGradient id="paint2_linear" x1="62.8898" y1="-27.7326" x2="167.54" y2="153.527" gradientUnits="userSpaceOnUse">
<stop offset="0.00135496" stop-color="white" stop-opacity="0.3"/>
<stop offset="1" stop-color="white" stop-opacity="0"/>
</linearGradient>
</defs>
</svg>
